<svg width="24" height="24" viewBox="0 0 24 24" fill="none" xmlns="http://www.w3.org/2000/svg">
<path d="M8.59339 13.9094C8.59307 13.3224 8.11688 12.8434 7.52681 12.8434C6.93952 12.8434 6.46024 13.3197 6.46024 13.91C6.46024 14.4973 6.93655 14.9766 7.52681 14.9766C8.1158 14.9766 8.59586 14.4984 8.59339 13.9094ZM8.59339 13.9094C8.59339 13.9092 8.59339 13.909 8.59339 13.9088L8.34339 13.91H8.59339C8.59339 13.9098 8.59339 13.9096 8.59339 13.9094ZM17.5376 13.9094C17.5372 13.3224 17.0611 12.8434 16.471 12.8434C15.8837 12.8434 15.4044 13.3197 15.4044 13.91C15.4044 14.4973 15.8807 14.9766 16.471 14.9766C17.06 14.9766 17.54 14.4984 17.5376 13.9094ZM17.5376 13.9094C17.5376 13.9096 17.5376 13.9098 17.5376 13.91H17.2876L17.5376 13.9088C17.5376 13.909 17.5376 13.9092 17.5376 13.9094ZM16.5366 9.70423L16.4081 9.92673L16.634 10.0491C19.2718 11.4773 21.0834 14.1107 21.4631 17.2126H2.53683C2.91655 14.1106 4.72811 11.4772 7.36383 10.049L7.58964 9.92666L7.46124 9.70423L5.84505 6.90453L5.84469 6.90392C5.823 6.86658 5.83511 6.82012 5.87292 6.79815C5.9102 6.77649 5.95656 6.78853 5.97858 6.82619C5.97861 6.82625 5.97865 6.82631 5.97868 6.82638L7.61574 9.66153L7.72937 9.85834L7.93609 9.76393C9.15245 9.20841 10.5232 8.89783 12 8.89783C13.4767 8.89783 14.8475 9.20841 16.0638 9.76393L16.2706 9.85834L16.3842 9.66153L18.0216 6.82578L18.0225 6.82417C18.0423 6.7893 18.0885 6.7767 18.1236 6.7974C18.1627 6.8204 18.1737 6.86852 18.1531 6.90392L18.1528 6.90453L16.5366 9.70423Z" stroke="#00A78E" stroke-width="1"/>
</svg>
