<svg width="24" height="24" viewBox="0 0 24 24" fill="none" xmlns="http://www.w3.org/2000/svg">
<path d="M16.9054 12.5929V12.593C16.9195 14.1036 17.5851 15.1173 18.2504 15.7503C18.5816 16.0655 18.9124 16.2863 19.1626 16.4295C19.2463 16.4774 19.3213 16.5167 19.3845 16.5481C19.2416 16.968 18.8664 17.9511 18.1772 18.9584L18.3794 19.0968L18.1772 18.9584C17.7811 19.5373 17.3947 20.0884 16.9543 20.5001C16.519 20.9071 16.0492 21.1603 15.4871 21.1707C14.9238 21.181 14.5534 21.0209 14.1222 20.8344L14.1 20.8248C13.6518 20.6311 13.1499 20.4205 12.374 20.4205C11.6017 20.4205 11.0908 20.6171 10.6361 20.8093C10.6057 20.8222 10.5757 20.8349 10.546 20.8476C10.1347 21.0225 9.77816 21.1741 9.26934 21.1941C8.74383 21.2139 8.25903 20.9527 7.79058 20.5136C7.32164 20.0741 6.9005 19.4861 6.50217 18.9108C5.71171 17.768 5.00996 16.1449 4.71154 14.4551C4.41278 12.7634 4.52333 11.0364 5.3159 9.66016C6.1018 8.29604 7.50147 7.43969 9.01166 7.41775L9.0128 7.41773C9.56884 7.40712 10.1209 7.59454 10.6539 7.80239C10.7219 7.82892 10.7902 7.85601 10.8583 7.88301C11.0495 7.95886 11.2389 8.03397 11.4151 8.09382C11.6538 8.17489 11.8972 8.23864 12.1257 8.23864C12.3592 8.23864 12.6222 8.16105 12.8827 8.06769C13.0259 8.01636 13.1882 7.9524 13.3553 7.8866C13.4861 7.83505 13.6198 7.78237 13.7494 7.73378C14.3704 7.50086 15.042 7.30293 15.7167 7.3713L15.7241 7.37205L15.7315 7.37236C16.292 7.39568 17.7973 7.59091 18.8404 8.93157C18.2812 9.32775 16.8868 10.5184 16.9054 12.5929ZM14.5855 5.41174L14.5855 5.41179C14.0066 6.11295 13.0963 6.64982 12.205 6.66545C12.1618 5.73856 12.6252 4.77674 13.1672 4.15008L13.1681 4.14896C13.7527 3.46498 14.705 2.94211 15.5293 2.82673C15.5576 3.77119 15.1625 4.71332 14.5855 5.41174Z" stroke="#00A78E" stroke-width="1"/>
</svg>
