<svg width="24" height="24" viewBox="0 0 24 24" fill="none" xmlns="http://www.w3.org/2000/svg">
<path d="M9.5301 16.122C9.26849 15.477 8.79077 14.9431 8.17877 14.6117C7.56677 14.2802 6.85857 14.1719 6.17547 14.3052C5.49237 14.4385 4.87687 14.8052 4.4344 15.3424C3.99193 15.8796 3.75002 16.554 3.7501 17.25C3.7501 17.5581 3.68682 17.8629 3.56418 18.1456C3.44154 18.4282 3.26215 18.6827 3.03714 18.8932C2.81213 19.1036 2.54629 19.2657 2.25609 19.3692C1.96589 19.4727 1.65752 19.5155 1.3501 19.495C1.84454 20.354 2.60873 21.0256 3.52402 21.4058C4.43931 21.786 5.4545 21.8533 6.412 21.5974C7.36949 21.3415 8.21572 20.7767 8.81931 19.9906C9.42291 19.2045 9.7501 18.2411 9.7501 17.25C9.7501 16.851 9.6721 16.47 9.5301 16.122ZM9.5301 16.122C10.7191 15.7169 11.8563 15.1731 12.9181 14.502M7.8751 14.477C8.28031 13.2855 8.82474 12.1459 9.4971 11.082M12.9171 14.502C14.8134 13.3039 16.4366 11.7202 17.6811 9.854L21.5571 4.04C21.7056 3.81856 21.7726 3.55244 21.7467 3.28709C21.7208 3.02174 21.6035 2.77362 21.415 2.58509C21.2265 2.39657 20.9784 2.27934 20.713 2.25342C20.4477 2.22751 20.1815 2.29451 19.9601 2.443L14.1461 6.32C12.2796 7.56414 10.6957 9.18693 9.4971 11.083C11.019 11.7635 12.2366 12.9811 12.9171 14.503" stroke="#00A78E" stroke-width="1" stroke-linecap="round" stroke-linejoin="round"/>
</svg>
