<svg width="120" height="27" viewBox="0 0 120 27" fill="none" xmlns="http://www.w3.org/2000/svg">
<path d="M0.30072 0.769775V20.4983H7.83392C13.7538 20.4983 17.2402 16.8206 17.2402 10.5588C17.2402 4.29712 13.7538 0.769775 7.83392 0.769775H0.30072ZM4.42963 4.17407H7.34174C10.9785 4.17407 13.0292 6.4436 13.0292 10.5725C13.0292 14.8381 11.0331 17.0803 7.34174 17.0803H4.42963V4.17407Z" fill="black"/>
<path d="M26.1406 8.48071C27.9179 8.48071 29.1347 9.76587 29.2167 11.6389H22.996C23.1328 9.80688 24.3906 8.48071 26.1406 8.48071ZM29.2714 16.0139C28.9023 17.135 27.7812 17.8596 26.3183 17.8596C24.2812 17.8596 22.955 16.4241 22.955 14.3323V14.0862H33.0585V12.8694C33.0585 8.41235 30.3652 5.52759 26.0995 5.52759C21.7656 5.52759 19.0312 8.56274 19.0312 13.2385C19.0312 17.928 21.7382 20.8127 26.2499 20.8127C29.873 20.8127 32.498 18.885 32.9355 16.0139H29.2714Z" fill="black"/>
<path d="M34.8769 10.1487C34.8769 12.3088 36.2988 13.7581 39.0742 14.387L41.7812 14.9885C43.0937 15.303 43.5859 15.7131 43.5859 16.4514C43.5859 17.4084 42.6699 18.01 41.1523 18.01C39.5663 18.01 38.5956 17.2991 38.4042 16.0686H34.5078C34.7265 18.926 37.1328 20.8127 41.0429 20.8127C44.912 20.8127 47.5644 18.9124 47.5644 16.0276C47.5644 13.8401 46.3749 12.678 43.4355 12.0217L40.6328 11.4202C39.3476 11.1194 38.7187 10.6272 38.7187 9.90259C38.7187 8.95923 39.621 8.33032 41.0019 8.33032C42.4785 8.33032 43.4218 9.05493 43.5038 10.2307H47.1816C47.1269 7.38696 44.7343 5.52759 41.0566 5.52759C37.2968 5.52759 34.8769 7.35962 34.8769 10.1487Z" fill="black"/>
<path d="M49.6288 20.4983H53.621V5.84204H49.6288V20.4983ZM51.6249 4.22876C52.8281 4.22876 53.7578 3.31274 53.7578 2.16431C53.7578 1.0022 52.8281 0.0998535 51.6249 0.0998535C50.4218 0.0998535 49.4921 1.0022 49.4921 2.16431C49.4921 3.31274 50.4218 4.22876 51.6249 4.22876Z" fill="black"/>
<path d="M63.0546 17.3811C61.0722 17.3811 59.8417 15.8225 59.8417 13.1428C59.8417 10.4768 61.0859 8.80884 63.0546 8.80884C65.0507 8.80884 66.3222 10.5042 66.3222 13.1428C66.3222 15.7952 65.0507 17.3811 63.0546 17.3811ZM62.9863 26.0217C67.3749 26.0217 70.3007 23.7932 70.3007 20.2932V5.84204H66.3632V8.39868H66.2949C65.5292 6.71704 63.8749 5.60962 61.7695 5.60962C58.0507 5.60962 55.7538 8.46704 55.7538 13.1155C55.7538 17.6956 58.1191 20.4573 61.7011 20.4573C63.8203 20.4573 65.5429 19.3909 66.2265 17.8323H66.3085V20.4026C66.3085 22.0979 65.1601 23.2463 63.0956 23.2463C61.5781 23.2463 60.4296 22.5491 60.1152 21.5374H56.205C56.5195 24.1487 59.1308 26.0217 62.9863 26.0217Z" fill="black"/>
<path d="M72.912 20.4983H76.9042V12.0901C76.9042 10.1897 78.039 8.8772 79.83 8.8772C81.621 8.8772 82.5234 9.97095 82.5234 11.885V20.4983H86.5156V11.051C86.5156 7.61938 84.6835 5.5686 81.4296 5.5686C79.1738 5.5686 77.6288 6.63501 76.8495 8.45337H76.7675V5.84204H72.912V20.4983Z" fill="black"/>
<path d="M96.5351 8.48071C98.3124 8.48071 99.5292 9.76587 99.6113 11.6389H93.3906C93.5273 9.80688 94.7851 8.48071 96.5351 8.48071ZM99.666 16.0139C99.2968 17.135 98.1757 17.8596 96.7128 17.8596C94.6757 17.8596 93.3495 16.4241 93.3495 14.3323V14.0862H103.453V12.8694C103.453 8.41235 100.76 5.52759 96.4941 5.52759C92.1601 5.52759 89.4257 8.56274 89.4257 13.2385C89.4257 17.928 92.1328 20.8127 96.6445 20.8127C100.268 20.8127 102.893 18.885 103.33 16.0139H99.666Z" fill="#00A78E"/>
<path d="M105.518 20.4983H109.51V12.3088C109.51 10.2444 110.658 9.04126 112.627 9.04126C113.201 9.04126 113.748 9.13696 114.076 9.27368V5.76001C113.803 5.67798 113.406 5.60962 112.941 5.60962C111.219 5.60962 109.975 6.62134 109.455 8.48071H109.373V5.84204H105.518V20.4983Z" fill="#00A78E"/>
<path d="M116.81 20.6624C118.027 20.6624 119.012 19.678 119.012 18.4612C119.012 17.2307 118.027 16.26 116.81 16.26C115.58 16.26 114.609 17.2307 114.609 18.4612C114.609 19.678 115.58 20.6624 116.81 20.6624Z" fill="#00A78E"/>
</svg>
