<svg width="24" height="24" viewBox="0 0 24 24" fill="none" xmlns="http://www.w3.org/2000/svg">
<path d="M9 17.25V18.257C9.00005 18.6511 8.92244 19.0414 8.77162 19.4055C8.6208 19.7696 8.39971 20.1004 8.121 20.379L7.5 21H16.5L15.879 20.379C15.6003 20.1004 15.3792 19.7696 15.2284 19.4055C15.0776 19.0414 15 18.6511 15 18.257V17.25M21 5.25V15C21 15.5967 20.7629 16.169 20.341 16.591C19.919 17.0129 19.3467 17.25 18.75 17.25H5.25C4.65326 17.25 4.08097 17.0129 3.65901 16.591C3.23705 16.169 3 15.5967 3 15V5.25M21 5.25C21 4.65326 20.7629 4.08097 20.341 3.65901C19.919 3.23705 19.3467 3 18.75 3H5.25C4.65326 3 4.08097 3.23705 3.65901 3.65901C3.23705 4.08097 3 4.65326 3 5.25M21 5.25V12C21 12.5967 20.7629 13.169 20.341 13.591C19.919 14.0129 19.3467 14.25 18.75 14.25H5.25C4.65326 14.25 4.08097 14.0129 3.65901 13.591C3.23705 13.169 3 12.5967 3 12V5.25" stroke="#00A78E" stroke-width="1" stroke-linecap="round" stroke-linejoin="round"/>
</svg>
